name Walk1.mot
datacolumns 19
datarows 30
range 2.00300000 2.03200000
endheader

                time	   L_ground_force_vx	   L_ground_force_vy	   L_ground_force_vz	   L_ground_force_px	   L_ground_force_py	   L_ground_force_pz	   R_ground_force_vx	   R_ground_force_vy	   R_ground_force_vz	   R_ground_force_px	   R_ground_force_py	   R_ground_force_pz	   L_ground_torque_x	   L_ground_torque_y	   L_ground_torque_z	   R_ground_torque_x	   R_ground_torque_y	   R_ground_torque_z	
          2.00300000	        -36.35504896	        547.01464174	        -30.23605751	          0.38802233	          0.00000000	          0.09529538	          0.00000000	          0.00000000	          0.00000000	          0.00000000	          0.00000000	          0.00000000	          0.00000000	         -0.14361976	          0.00000000	          0.00000000	          0.00000000	          0.00000000	
          2.00400000	        -36.16221807	        545.79307047	        -30.34708758	          0.38828408	          0.00000000	          0.09523766	          0.00000000	          0.00000000	          0.00000000	          0.00000000	          0.00000000	          0.00000000	          0.00000000	         -0.17472489	          0.00000000	          0.00000000	          0.00000000	          0.00000000	
          2.00500000	        -35.91497841	        544.57761735	        -30.49372973	          0.38856725	          0.00000000	          0.09520492	          0.00000000	          0.00000000	          0.00000000	          0.00000000	          0.00000000	          0.00000000	          0.00000000	         -0.18105969	          0.00000000	          0.00000000	          0.00000000	          0.00000000	
          2.00600000	        -35.62196646	        543.37862695	        -30.68627832	          0.38891883	          0.00000000	          0.09515835	          0.00000000	          0.00000000	          0.00000000	          0.00000000	          0.00000000	          0.00000000	          0.00000000	         -0.16238293	          0.00000000	          0.00000000	          0.00000000	          0.00000000	
          2.00700000	        -35.30944958	        542.22285908	        -30.90878775	          0.38931797	          0.00000000	          0.09508353	          0.00000000	          0.00000000	          0.00000000	          0.00000000	          0.00000000	          0.00000000	          0.00000000	         -0.12733918	          0.00000000	          0.00000000	          0.00000000	          0.00000000	
          2.00800000	        -35.00304335	        541.13687709	        -31.13816665	          0.38975321	          0.00000000	          0.09499474	          0.00000000	          0.00000000	          0.00000000	          0.00000000	          0.00000000	          0.00000000	          0.00000000	         -0.08958285	          0.00000000	          0.00000000	          0.00000000	          0.00000000	
          2.00900000	        -34.71429743	        540.12195591	        -31.36364567	          0.39026276	          0.00000000	          0.09491549	          0.00000000	          0.00000000	          0.00000000	          0.00000000	          0.00000000	          0.00000000	          0.00000000	         -0.05967014	          0.00000000	          0.00000000	          0.00000000	          0.00000000	
          2.01000000	        -34.43658514	        539.14766954	        -31.58475102	          0.39088530	          0.00000000	          0.09486383	          0.00000000	          0.00000000	          0.00000000	          0.00000000	          0.00000000	          0.00000000	          0.00000000	         -0.04018745	          0.00000000	          0.00000000	          0.00000000	          0.00000000	
          2.01100000	        -34.15913428	        538.17931777	        -31.80403017	          0.39162315	          0.00000000	          0.09484231	          0.00000000	          0.00000000	          0.00000000	          0.00000000	          0.00000000	          0.00000000	          0.00000000	         -0.03114771	          0.00000000	          0.00000000	          0.00000000	          0.00000000	
          2.01200000	        -33.87993454	        537.19943858	        -32.02302489	          0.39244596	          0.00000000	          0.09483707	          0.00000000	          0.00000000	          0.00000000	          0.00000000	          0.00000000	          0.00000000	          0.00000000	         -0.03138646	          0.00000000	          0.00000000	          0.00000000	          0.00000000	
          2.01300000	        -33.59817299	        536.20583848	        -32.23819791	          0.39328908	          0.00000000	          0.09483031	          0.00000000	          0.00000000	          0.00000000	          0.00000000	          0.00000000	          0.00000000	          0.00000000	         -0.03270356	          0.00000000	          0.00000000	          0.00000000	          0.00000000	
          2.01400000	        -33.30778653	        535.20507868	        -32.43964303	          0.39406820	          0.00000000	          0.09480675	          0.00000000	          0.00000000	          0.00000000	          0.00000000	          0.00000000	          0.00000000	          0.00000000	         -0.02458344	          0.00000000	          0.00000000	          0.00000000	          0.00000000	
          2.01500000	        -33.01021110	        534.20586529	        -32.61834364	          0.39472309	          0.00000000	          0.09474932	          0.00000000	          0.00000000	          0.00000000	          0.00000000	          0.00000000	          0.00000000	          0.00000000	         -0.00629160	          0.00000000	          0.00000000	          0.00000000	          0.00000000	
          2.01600000	        -32.71793587	        533.21786995	        -32.77714496	          0.39524254	          0.00000000	          0.09464318	          0.00000000	          0.00000000	          0.00000000	          0.00000000	          0.00000000	          0.00000000	          0.00000000	          0.01300037	          0.00000000	          0.00000000	          0.00000000	          0.00000000	
          2.01700000	        -32.43778329	        532.25716596	        -32.93372248	          0.39564377	          0.00000000	          0.09449003	          0.00000000	          0.00000000	          0.00000000	          0.00000000	          0.00000000	          0.00000000	          0.00000000	          0.02494964	          0.00000000	          0.00000000	          0.00000000	          0.00000000	
          2.01800000	        -32.16655147	        531.33953772	        -33.10975537	          0.39595243	          0.00000000	          0.09431233	          0.00000000	          0.00000000	          0.00000000	          0.00000000	          0.00000000	          0.00000000	          0.00000000	          0.02905646	          0.00000000	          0.00000000	          0.00000000	          0.00000000	
          2.01900000	        -31.89911395	        530.46551606	        -33.31556867	          0.39621408	          0.00000000	          0.09414178	          0.00000000	          0.00000000	          0.00000000	          0.00000000	          0.00000000	          0.00000000	          0.00000000	          0.03076751	          0.00000000	          0.00000000	          0.00000000	          0.00000000	
          2.02000000	        -31.62688899	        529.63401825	        -33.54834212	          0.39649147	          0.00000000	          0.09401144	          0.00000000	          0.00000000	          0.00000000	          0.00000000	          0.00000000	          0.00000000	          0.00000000	          0.03534026	          0.00000000	          0.00000000	          0.00000000	          0.00000000	
          2.02100000	        -31.33685850	        528.87283853	        -33.80267967	          0.39683314	          0.00000000	          0.09394885	          0.00000000	          0.00000000	          0.00000000	          0.00000000	          0.00000000	          0.00000000	          0.00000000	          0.04429244	          0.00000000	          0.00000000	          0.00000000	          0.00000000	
          2.02200000	        -31.02233462	        528.21987564	        -34.07528017	          0.39725554	          0.00000000	          0.09395664	          0.00000000	          0.00000000	          0.00000000	          0.00000000	          0.00000000	          0.00000000	          0.00000000	          0.05670193	          0.00000000	          0.00000000	          0.00000000	          0.00000000	
          2.02300000	        -30.69036667	        527.66405458	        -34.36470618	          0.39775574	          0.00000000	          0.09400001	          0.00000000	          0.00000000	          0.00000000	          0.00000000	          0.00000000	          0.00000000	          0.00000000	          0.07064971	          0.00000000	          0.00000000	          0.00000000	          0.00000000	
          2.02400000	        -30.35123237	        527.14642920	        -34.67508024	          0.39833059	          0.00000000	          0.09402485	          0.00000000	          0.00000000	          0.00000000	          0.00000000	          0.00000000	          0.00000000	          0.00000000	          0.08320633	          0.00000000	          0.00000000	          0.00000000	          0.00000000	
          2.02500000	        -30.00523616	        526.62854656	        -35.01221005	          0.39897588	          0.00000000	          0.09399830	          0.00000000	          0.00000000	          0.00000000	          0.00000000	          0.00000000	          0.00000000	          0.00000000	          0.09230942	          0.00000000	          0.00000000	          0.00000000	          0.00000000	
          2.02600000	        -29.64810471	        526.12612173	        -35.36947180	          0.39966467	          0.00000000	          0.09393420	          0.00000000	          0.00000000	          0.00000000	          0.00000000	          0.00000000	          0.00000000	          0.00000000	          0.09924787	          0.00000000	          0.00000000	          0.00000000	          0.00000000	
          2.02700000	        -29.28210972	        525.68220954	        -35.72652491	          0.40033495	          0.00000000	          0.09387540	          0.00000000	          0.00000000	          0.00000000	          0.00000000	          0.00000000	          0.00000000	          0.00000000	          0.10819366	          0.00000000	          0.00000000	          0.00000000	          0.00000000	
          2.02800000	        -28.91258073	        525.31868352	        -36.06625301	          0.40092343	          0.00000000	          0.09384620	          0.00000000	          0.00000000	          0.00000000	          0.00000000	          0.00000000	          0.00000000	          0.00000000	          0.12300379	          0.00000000	          0.00000000	          0.00000000	          0.00000000	
          2.02900000	        -28.54114097	        525.00540787	        -36.38368752	          0.40141437	          0.00000000	          0.09382874	          0.00000000	          0.00000000	          0.00000000	          0.00000000	          0.00000000	          0.00000000	          0.00000000	          0.14620058	          0.00000000	          0.00000000	          0.00000000	          0.00000000	
          2.03000000	        -28.16766318	        524.68518080	        -36.68137585	          0.40184470	          0.00000000	          0.09378827	          0.00000000	          0.00000000	          0.00000000	          0.00000000	          0.00000000	          0.00000000	          0.00000000	          0.18034586	          0.00000000	          0.00000000	          0.00000000	          0.00000000	
          2.03100000	        -27.78951730	        524.32531880	        -36.96573317	          0.40228527	          0.00000000	          0.09370337	          0.00000000	          0.00000000	          0.00000000	          0.00000000	          0.00000000	          0.00000000	          0.00000000	          0.22489067	          0.00000000	          0.00000000	          0.00000000	          0.00000000	
          2.03200000	        -27.39911306	        523.93867183	        -37.24196534	          0.40280864	          0.00000000	          0.09357262	          0.00000000	          0.00000000	          0.00000000	          0.00000000	          0.00000000	          0.00000000	          0.00000000	          0.27317822	          0.00000000	          0.00000000	          0.00000000	          0.00000000	
